<svg width="429" height="133" viewBox="0 0 429 133" fill="none" xmlns="http://www.w3.org/2000/svg">
<g clip-path="url(#clip0_14_171)">
<path d="M69 0L84.0004 11.7618C98.9996 23.5236 129 47.0472 159 47.0472C189 47.0472 219 23.5236 249 23.5236C279 23.5236 309 47.0472 339 47.0472C369 47.0472 399 23.5236 414 11.7618L429 0" stroke="#686868" stroke-width="2"/>
<path d="M69 76.001L84.0004 64.6917C98.9996 53.3806 129 30.7621 159 30.7621C189 30.7621 219 53.3806 249 53.3806C279 53.3806 309 30.7621 339 30.7621C369 30.7621 399 53.3806 414 64.6917L429 76.001" stroke="#686868" stroke-width="2"/>
<path d="M69 13.5719L84.0004 25.3337C98.9996 37.0955 129 60.6191 159 60.6191C189 60.6191 219 37.0955 249 37.0955C279 37.0955 309 60.6191 339 60.6191C369 60.6191 399 37.0955 414 25.3337L429 13.5719" stroke="#686868" stroke-width="2"/>
<path d="M69 92.2862L84.0004 80.5244C98.9996 68.7626 129 45.239 159 45.239C189 45.239 219 68.7626 249 68.7626C279 68.7626 309 45.239 339 45.239C369 45.239 399 68.7626 414 80.5244L429 92.2862" stroke="#686868" stroke-width="2"/>
<path d="M69 27.1438L84.0004 38.9056C98.9996 50.6674 129 74.191 159 74.191C189 74.191 219 50.6674 249 50.6674C279 50.6674 309 74.191 339 74.191C369 74.191 399 50.6674 414 38.9056L429 27.1438" stroke="#686868" stroke-width="2"/>
<path d="M69 105.858L84.0004 94.0962C98.9996 82.3344 129 58.809 159 58.809C189 58.809 219 82.3344 249 82.3344C279 82.3344 309 58.809 339 58.809C369 58.809 399 82.3344 414 94.0962L429 105.858" stroke="#686868" stroke-width="2"/>
<path d="M69 43.4289L84.0004 54.7382C98.9996 66.0474 129 88.6678 159 88.6678C189 88.6678 219 66.0474 249 66.0474C279 66.0474 309 88.6678 339 88.6678C369 88.6678 399 66.0474 414 54.7382L429 43.4289" stroke="#686868" stroke-width="2"/>
<path d="M69 119.43L84.0004 107.666C98.9996 95.9045 129 72.3809 159 72.3809C189 72.3809 219 95.9045 249 95.9045C279 95.9045 309 72.3809 339 72.3809C369 72.3809 399 95.9045 414 107.666L429 119.43" stroke="#686868" stroke-width="2"/>
<path d="M69 57.0008L84.0004 68.3101C98.9996 79.6194 129 102.238 159 102.238C189 102.238 219 79.6194 249 79.6194C279 79.6194 309 102.238 339 102.238C369 102.238 399 79.6194 414 68.3101L429 57.0008" stroke="#686868" stroke-width="2"/>
<path d="M69 133L84.0004 121.238C98.9996 109.476 129 85.9528 159 85.9528C189 85.9528 219 109.476 249 109.476C279 109.476 309 85.9528 339 85.9528C369 85.9528 399 109.476 414 121.238L429 133" stroke="#686868" stroke-width="2"/>
</g>
<defs>
<clipPath id="clip0_14_171">
<rect width="429" height="133" fill="white"/>
</clipPath>
</defs>
</svg>
